<mxfile host="app.diagrams.net" modified="2023-09-29T11:06:10.583Z" agent="Mozilla/5.0 (Windows NT 10.0; Win64; x64; rv:109.0) Gecko/20100101 Firefox/117.0" version="21.6.9" etag="zUGkdjZeHgSsG0vnGuaY" type="gitlab">
  <diagram name="Seite-1" id="gcjo2AT5yu8JWGk48X0a">
    <mxGraphModel>
      <root>
        <mxCell id="0" />
        <mxCell id="1" parent="0" />
      </root>
    </mxGraphModel>
  </diagram>
</mxfile>
